<?xml version="1.0" standalone="no"?>
<!DOCTYPE svg PUBLIC "-//W3C//DTD SVG 20010904//EN"
 "http://www.w3.org/TR/2001/REC-SVG-20010904/DTD/svg10.dtd">
<svg version="1.0" xmlns="http://www.w3.org/2000/svg"
 width="512.000000pt" height="512.000000pt" viewBox="0 0 512.000000 512.000000"
 preserveAspectRatio="xMidYMid meet">
<metadata>
Created by potrace 1.14, written by Peter Selinger 2001-2017
</metadata>
<g transform="translate(0.000000,512.000000) scale(0.100000,-0.100000)"
fill="#000000" stroke="none">
<path d="M1593 3376 c-581 -290 -936 -473 -942 -485 -17 -30 -13 -75 7 -97 10
-10 154 -86 320 -169 l302 -149 0 -311 c0 -281 2 -314 19 -350 23 -49 91 -118
91 -92 0 10 18 37 40 61 l40 43 0 267 c0 167 4 275 10 287 7 12 214 121 530
279 527 263 578 285 594 244 11 -30 6 -71 -11 -86 -10 -8 -234 -124 -498 -257
-264 -133 -486 -249 -494 -259 -11 -14 -12 -61 -7 -245 l7 -228 35 -31 c66
-58 80 -117 44 -188 -31 -61 -73 -85 -148 -85 l-64 0 39 -17 c21 -10 50 -18
66 -18 l27 0 0 -108 c0 -127 -13 -152 -78 -152 -35 -1 -36 -2 -18 -15 36 -27
96 -11 115 32 6 13 11 80 11 154 l0 129 98 -48 c174 -87 328 -140 527 -179 70
-14 140 -18 310 -18 248 0 354 16 553 81 240 78 521 242 654 380 67 70 68 78
68 419 l0 305 299 150 c165 82 309 159 320 172 29 31 28 82 -3 113 -14 14
-432 228 -929 476 -733 367 -913 453 -953 456 -49 5 -65 -3 -981 -461z"/>
</g>
</svg>
